/vscmnt/brussel_pixiu_data/_data_brussel/112/vsc11236/PredSimResults/SUBJ07mtu3D/worker8.mot
version=1
nRows=8
nColumns=50
inDegrees=yes
endheader
                time	         pelvis_tilt	         pelvis_list	     pelvis_rotation	           pelvis_tx	           pelvis_ty	           pelvis_tz	       hip_flexion_r	     hip_adduction_r	      hip_rotation_r	        knee_angle_r	       ankle_angle_r	         mtp_angle_r	       hip_flexion_l	     hip_adduction_l	      hip_rotation_l	        knee_angle_l	       ankle_angle_l	         mtp_angle_l	    lumbar_extension	      lumbar_bending	     lumbar_rotation	 ercspn_r/activation	 intobl_r/activation	 extobl_r/activation	    abd_r/activation	    add_r/activation	hamstrings_r/activation	bifemsh_r/activation	glut_max_r/activation	iliopsoas_r/activation	rect_fem_r/activation	  vasti_r/activation	gastroc_r/activation	 soleus_r/activation	tib_ant_r/activation	 ercspn_l/activation	 intobl_l/activation	 extobl_l/activation	    abd_l/activation	    add_l/activation	hamstrings_l/activation	bifemsh_l/activation	glut_max_l/activation	iliopsoas_l/activation	rect_fem_l/activation	  vasti_l/activation	gastroc_l/activation	 soleus_l/activation	tib_ant_l/activation	
          0.00000000	        -16.75770137	         -3.29093289	         -0.34937368	          0.00000000	          0.84905262	         -0.00286288	         39.08921307	         -4.58506371	        -13.42293210	         -7.64483010	        -22.27221174	          0.23606942	          6.45204379	        -12.03848549	        -20.07029823	        -24.26944376	        -11.26237422	         48.54943840	         -9.65487856	          2.20245311	         -1.87540041	          0.24912885	          0.15136182	          0.01081832	          0.01000000	          0.08068951	          0.07284243	          0.72101442	          0.01000001	          0.31533290	          0.02854383	          0.01000000	          0.07020516	          0.01362788	          0.01608117	          0.05814023	          0.01000003	          0.01000003	          0.06064293	          0.03042746	          0.05624470	          0.64827086	          0.04963371	          0.01000005	          0.01000028	          0.02697463	          0.12495216	          0.22377147	          0.02756590	
          0.01004316	        -16.79952515	         -3.12295555	         -0.56087754	          0.01529723	          0.84681007	         -0.00026697	         40.20018896	         -3.76593923	        -12.47602459	         -9.71930076	        -21.13983165	          0.26940913	          5.10049599	        -11.97100388	        -20.71552658	        -23.62039573	        -12.18026505	         48.72225749	         -9.30149750	          2.61935894	         -2.39674203	          0.21767105	          0.14523474	          0.01000206	          0.01000002	          0.06911983	          0.11465791	          0.61763162	          0.01000000	          0.30319146	          0.02445107	          0.00999999	          0.06013891	          0.01167384	          0.09732288	          0.10559275	          0.01000001	          0.01000000	          0.05194765	          0.02606461	          0.04818052	          0.78621617	          0.04251698	          0.01000004	          0.01167407	          0.02310686	          0.10704458	          0.21270260	          0.02361336	
          0.02008632	        -16.84155296	         -2.86456900	         -0.83350040	          0.03100893	          0.84449190	          0.00209085	         41.15269949	         -3.44923145	        -11.99423337	        -12.51329716	        -18.96130417	          0.66808864	          3.77688992	        -11.79396167	        -21.39279297	        -23.08594109	        -13.15952251	         48.67822998	         -8.89521800	          2.99824638	         -2.86567023	          0.18646022	          0.18188111	          0.01000004	          0.01882022	          0.05920906	          0.13768851	          0.52907235	          0.01000000	          0.25971828	          0.02094514	          0.01000000	          0.05151610	          0.00999999	          0.08336823	          0.14518041	          0.01000001	          0.01000003	          0.04449912	          0.02232733	          0.05283515	          0.76649849	          0.03642068	          0.03174285	          0.01000030	          0.01979368	          0.09169929	          0.21106478	          0.02022756	
          0.03012948	        -16.88933948	         -2.56872360	         -1.18574898	          0.04698018	          0.84223979	          0.00416091	         41.89974013	         -3.62964699	        -11.90631063	        -16.05808798	        -15.88289119	          1.92545953	          2.51410873	        -11.56516201	        -22.11096774	        -22.68894491	        -14.20583149	         48.38899092	         -8.45802478	          3.40282941	         -3.26454976	          0.15972457	          0.15580205	          0.01000002	          0.01612168	          0.05071936	          0.14864289	          0.45321119	          0.13239967	          0.22247850	          0.01794192	          0.00999999	          0.04621305	          0.01000022	          0.07141446	          0.22102661	          0.01000001	          0.01000017	          0.03811861	          0.03449177	          0.05837843	          0.65659395	          0.03119851	          0.06941404	          0.01000012	          0.01695556	          0.07855207	          0.18930861	          0.01732723	
          0.04017264	        -16.94589571	         -2.33997564	         -1.54689097	          0.06307257	          0.84021622	          0.00622731	         42.28408951	         -3.76623829	        -11.51156571	        -19.14441927	        -12.99181671	          3.91764561	          1.38641139	        -11.43418240	        -22.79801709	        -22.50313478	        -15.28569050	         47.76017978	         -8.00388854	          3.89465929	         -3.66279453	          0.13682242	          0.13346234	          0.01000003	          0.03136776	          0.04344695	          0.14436141	          0.41362479	          0.25762966	          0.19057837	          0.01536932	          0.00999999	          0.03958793	          0.01000002	          0.06117469	          0.26588314	          0.01000010	          0.01362858	          0.03265296	          0.02954618	          0.14450020	          0.56244807	          0.02672519	          0.11282057	          0.01000005	          0.01452439	          0.06728945	          0.16216465	          0.01484277	
          0.05021579	        -17.01529701	         -2.16309140	         -1.90980066	          0.07906216	          0.83864336	          0.00833652	         42.30885727	         -3.76820224	        -10.93179297	        -21.41668537	        -10.69491684	          6.02545321	          0.44733198	        -11.40144362	        -23.44007038	        -22.58301972	        -16.37629823	         46.66404745	         -7.55989800	          4.43395391	         -4.06784167	          0.11720413	          0.11432582	          0.01000002	          0.08240938	          0.03721730	          0.15137557	          0.42550638	          0.33982316	          0.16325224	          0.01316558	          0.01000000	          0.03391264	          0.01000007	          0.05240318	          0.28322153	          0.01000002	          0.01167446	          0.02797101	          0.02530970	          0.12378193	          0.48180132	          0.02289322	          0.17258177	          0.01000009	          0.01244182	          0.05764157	          0.13891271	          0.01271454	
          0.06025895	        -17.09868567	         -1.98355258	         -2.28508611	          0.09467826	          0.83773645	          0.01043306	         42.10402662	         -3.70330931	        -10.27569608	        -23.09363880	         -8.87742324	          8.17911596	         -0.24003217	        -11.42696198	        -24.00186312	        -23.00280145	        -17.49026724	         45.04081783	         -7.16502271	          4.95611568	         -4.46533415	          0.10945747	          0.09793319	          0.01000002	          0.12918025	          0.03188092	          0.15620372	          0.42826265	          0.39466131	          0.13984427	          0.01127784	          0.01000000	          0.02905086	          0.01000008	          0.04488990	          0.28291645	          0.01000002	          0.01000055	          0.02396039	          0.02168066	          0.10603520	          0.41271812	          0.01961084	          0.22849310	          0.01000011	          0.01604403	          0.04937698	          0.11899473	          0.01089149	
          0.07030211	        -17.19448112	         -1.78046400	         -2.67695105	          0.10971419	          0.83765345	          0.01243123	         41.79603979	         -3.62159687	         -9.58725365	        -24.37052389	         -7.59533752	         10.34923528	         -0.64039069	        -11.49358206	        -24.42365733	        -23.76370841	        -18.69291279	         42.93341641	         -6.85319123	          5.44312660	         -4.83750883	          0.10898169	          0.08389101	          0.01000003	          0.15633568	          0.03449463	          0.15869527	          0.41821829	          0.42054999	          0.11979266	          0.01000001	          0.01000000	          0.02488633	          0.01000010	          0.09738411	          0.28092886	          0.01000002	          0.01000021	          0.02052487	          0.01857198	          0.09083341	          0.35354043	          0.01679922	          0.27183120	          0.01000011	          0.03288773	          0.04229734	          0.10193266	          0.01000006	
